<?xml version="1.0" encoding="UTF-8"?>
<svg id="layer" enable-background="new 0 0 600.1 245.7" version="1.1" width="494" height="202" viewBox="0 0 600.1 245.7" xml:space="preserve" xmlns="http://www.w3.org/2000/svg" xmlns:xlink="http://www.w3.org/1999/xlink">
<style type="text/css">
	.st0{clip-path:url(#SVGID_2_);fill:url(#SVGID_3_);}
	.st1{clip-path:url(#SVGID_5_);fill:#000023;}
	.st2{clip-path:url(#SVGID_7_);}
	.st3{clip-path:url(#SVGID_9_);}
	.st4{clip-path:url(#SVGID_11_);fill:#9193B6;}
	.st5{clip-path:url(#SVGID_13_);}
	.st6{clip-path:url(#SVGID_15_);}
	.st7{clip-path:url(#SVGID_17_);fill:#787CA5;}
	.st8{clip-path:url(#SVGID_19_);}
	.st9{clip-path:url(#SVGID_21_);}
	.st10{clip-path:url(#SVGID_23_);fill:url(#SVGID_24_);}
	.st11{clip-path:url(#SVGID_26_);}
	.st12{clip-path:url(#SVGID_28_);}
	.st13{clip-path:url(#SVGID_30_);fill:#000023;}
	.st14{clip-path:url(#SVGID_32_);}
	.st15{clip-path:url(#SVGID_34_);}
	.st16{clip-path:url(#SVGID_36_);fill:#9193B6;}
	.st17{clip-path:url(#SVGID_38_);fill:none;}
	.st18{clip-path:url(#SVGID_40_);}
	.st19{clip-path:url(#SVGID_42_);}
	.st20{clip-path:url(#SVGID_44_);}
	.st21{clip-path:url(#SVGID_46_);}
	.st22{clip-path:url(#SVGID_48_);fill:#002565;}
	.st23{clip-path:url(#SVGID_50_);fill:url(#SVGID_51_);}
	.st24{clip-path:url(#SVGID_53_);fill:url(#SVGID_54_);}
	.st25{clip-path:url(#SVGID_56_);fill:url(#SVGID_57_);}
	.st26{clip-path:url(#SVGID_59_);fill:url(#SVGID_60_);}
	.st27{clip-path:url(#SVGID_62_);fill:url(#SVGID_63_);}
	.st28{clip-path:url(#SVGID_65_);fill:url(#SVGID_66_);}
	.st29{clip-path:url(#SVGID_68_);}
	.st30{clip-path:url(#SVGID_70_);}
	.st31{clip-path:url(#SVGID_72_);}
	.st32{clip-path:url(#SVGID_74_);fill:#002565;}
	.st33{clip-path:url(#SVGID_76_);}
	.st34{clip-path:url(#SVGID_78_);}
	.st35{clip-path:url(#SVGID_80_);}
	.st36{clip-path:url(#SVGID_82_);fill:#002565;}
	.st37{clip-path:url(#SVGID_84_);}
	.st38{clip-path:url(#SVGID_86_);fill:url(#SVGID_87_);}
	.st39{clip-path:url(#SVGID_89_);}
	.st40{clip-path:url(#SVGID_91_);fill:url(#SVGID_92_);}
	.st41{clip-path:url(#SVGID_94_);}
	.st42{clip-path:url(#SVGID_96_);fill:url(#SVGID_97_);}
	.st43{clip-path:url(#SVGID_99_);}
	.st44{clip-path:url(#SVGID_101_);}
	.st45{clip-path:url(#SVGID_103_);fill:#9193B6;}
	.st46{clip-path:url(#SVGID_105_);}
	.st47{clip-path:url(#SVGID_107_);fill:#001650;}
	.st48{fill:#002565;}
</style>

	
		
			<defs>
				<path id="SVGID_1_" d="m461.7 26.2v-0.6h38.1c3.3 0 6.3 0.1 9.2 0.4 20.5 1.8 30.9 10 30.9 24.4 0 16.5-13.6 24.8-40.3 24.8h-37.9v-49zm28.5-12.6c-30.7 0.6-55.3 0.5-55.3 0.5l-0.1 149.3h26.9v-65.8h12.8l73.8 65.7h51.8l-34.3-29.4-47.3-36.7c-0.4-0.3-0.6-0.8-0.6-1.4 0-0.2 0-0.4 0.1-0.6l-8.6-3.3s-2.9-5 6.4-6.2 43.3-4.5 43.3-36.4c0-30.2-34.3-35.8-63.9-35.8-1.8 0-3.4 0-5 0.1"/>
			</defs>
			<clipPath id="SVGID_2_">
				<use xlink:href="#SVGID_1_"/>
			</clipPath>
			
				<linearGradient id="SVGID_3_" x1="203.3" x2="209.18" y1="-355.45" y2="-355.45" gradientTransform="matrix(0 -25.987 25.987 0 9754.5 5449.3)" gradientUnits="userSpaceOnUse">
				<stop stop-color="#C6C7DB" offset="0"/>
				<stop stop-color="#BFC0D5" offset=".1041"/>
				<stop stop-color="#ACACC2" offset=".2559"/>
				<stop stop-color="#8C8CA5" offset=".437"/>
				<stop stop-color="#60607C" offset=".6406"/>
				<stop stop-color="#282848" offset=".8602"/>
				<stop stop-color="#000023" offset="1"/>
			</linearGradient>
			<rect class="st0" x="434.8" y="13.5" width="165.2" height="149.8" clip-path="url(#SVGID_2_)"/>
		
	
	
		
			<defs>
				<path id="SVGID_4_" d="m461.7 26.2v-0.6h37.9c26.7 0 40.3 8.4 40.3 24.8 0 16.5-13.6 24.8-40.3 24.8h-37.9v-49zm-38.4-23v160.1h38.3v-65.7h12.8l73.8 65.7h51.8l-77.9-66.7c11.8-1.2 21-3.4 30.6-7.4 16.7-7 27.1-21.8 27.1-38.7s-10.4-31.7-27.1-38.7c-15.2-6.3-29.6-8.6-55.2-8.6h-74.2z"/>
			</defs>
			<clipPath id="SVGID_5_">
				<use xlink:href="#SVGID_4_"/>
			</clipPath>
			<polygon class="st1" points="443 3.3 422 3.2 421.2 165 462.6 165 461.8 97.6 439.7 79.9" clip-path="url(#SVGID_5_)"/>
		
		
			<defs>
				<path id="SVGID_6_" d="m461.7 26.2v-0.6h37.9c26.7 0 40.3 8.4 40.3 24.8 0 16.5-13.6 24.8-40.3 24.8h-37.9v-49zm-38.4-23v160.1h38.3v-65.7h12.8l73.8 65.7h51.8l-77.9-66.7c11.8-1.2 21-3.4 30.6-7.4 16.7-7 27.1-21.8 27.1-38.7s-10.4-31.7-27.1-38.7c-15.2-6.3-29.6-8.6-55.2-8.6h-74.2z"/>
			</defs>
			<clipPath id="SVGID_7_">
				<use xlink:href="#SVGID_6_"/>
			</clipPath>
			<g class="st2" clip-path="url(#SVGID_7_)">
				
					
						<defs>
							<rect id="SVGID_8_" x="451.8" y="15.6" width="12.1" height="69.8"/>
						</defs>
						<clipPath id="SVGID_9_">
							<use xlink:href="#SVGID_8_"/>
						</clipPath>
						<g class="st3" clip-path="url(#SVGID_9_)">
							
								<defs>
									<rect id="SVGID_10_" x="451.8" y="15.6" width="12.1" height="69.8"/>
								</defs>
								<clipPath id="SVGID_11_">
									<use xlink:href="#SVGID_10_"/>
								</clipPath>
								<path class="st4" d="m463.8 27-12-11.4 0.5 69.8 11.1-11.8c-0.5-0.4 0.9-46.4 0.4-46.6" clip-path="url(#SVGID_11_)"/>
							
						</g>
					
				
			</g>
		
		
			<defs>
				<path id="SVGID_12_" d="m461.7 26.2v-0.6h37.9c26.7 0 40.3 8.4 40.3 24.8 0 16.5-13.6 24.8-40.3 24.8h-37.9v-49zm-38.4-23v160.1h38.3v-65.7h12.8l73.8 65.7h51.8l-77.9-66.7c11.8-1.2 21-3.4 30.6-7.4 16.7-7 27.1-21.8 27.1-38.7s-10.4-31.7-27.1-38.7c-15.2-6.3-29.6-8.6-55.2-8.6h-74.2z"/>
			</defs>
			<clipPath id="SVGID_13_">
				<use xlink:href="#SVGID_12_"/>
			</clipPath>
			<g class="st5" clip-path="url(#SVGID_13_)">
				
					
						<defs>
							<rect id="SVGID_14_" x="449.8" y="87.5" width="18" height="82.3"/>
						</defs>
						<clipPath id="SVGID_15_">
							<use xlink:href="#SVGID_14_"/>
						</clipPath>
						<g class="st6" clip-path="url(#SVGID_15_)">
							
								<defs>
									<rect id="SVGID_16_" x="449.8" y="87.5" width="18" height="82.3"/>
								</defs>
								<clipPath id="SVGID_17_">
									<use xlink:href="#SVGID_16_"/>
								</clipPath>
								<path class="st7" d="m449.8 151.5 18 18.3s-3.8-70.1-3.4-72.9l-12.1-9.4-2.5 64z" clip-path="url(#SVGID_17_)"/>
							
						</g>
					
				
			</g>
		
		
			<defs>
				<path id="SVGID_18_" d="m461.7 26.2v-0.6h37.9c26.7 0 40.3 8.4 40.3 24.8 0 16.5-13.6 24.8-40.3 24.8h-37.9v-49zm-38.4-23v160.1h38.3v-65.7h12.8l73.8 65.7h51.8l-77.9-66.7c11.8-1.2 21-3.4 30.6-7.4 16.7-7 27.1-21.8 27.1-38.7s-10.4-31.7-27.1-38.7c-15.2-6.3-29.6-8.6-55.2-8.6h-74.2z"/>
			</defs>
			<clipPath id="SVGID_19_">
				<use xlink:href="#SVGID_18_"/>
			</clipPath>
			<g class="st8" clip-path="url(#SVGID_19_)">
				
					
						<defs>
							<rect id="SVGID_20_" x="419.6" y=".1" width="163.3" height="99.9"/>
						</defs>
						<clipPath id="SVGID_21_">
							<use xlink:href="#SVGID_20_"/>
						</clipPath>
						<g class="st9" clip-path="url(#SVGID_21_)">
							
								<defs>
									<path id="SVGID_22_" d="m419.6 0.1 14.2 15.6s34-1.1 55.8-1.5c1.7 0 3.4-0.1 5.1-0.1 43.3 0 64.3 11.6 64.3 35.5 0 30.6-31.7 34.7-42.1 36l-0.9 0.1c-4.7 0.6-7.6 2.2-8.9 4.8-1.4 2.9 15.3 9.3 15.3 9.3s22.3-3.7 32.5-8c17.4-7.4 28.2-23.1 28.2-41s-10.8-33.6-28.2-41c-15.9-6.8-31-9.2-57.7-9.2l-77.6-0.5z"/>
								</defs>
								<clipPath id="SVGID_23_">
									<use xlink:href="#SVGID_22_"/>
								</clipPath>
								
									<linearGradient id="SVGID_24_" x1="205.28" x2="211.17" y1="-374.32" y2="-374.32" gradientTransform="matrix(7.8881 -14.23 14.23 7.8881 4192.1 5954.1)" gradientUnits="userSpaceOnUse">
									<stop stop-color="#000023" offset="0"/>
									<stop stop-color="#E3E3EE" offset="1"/>
								</linearGradient>
								<polygon class="st10" points="377.2 76.5 458 -69.2 625.3 23.6 544.5 169.2" clip-path="url(#SVGID_23_)"/>
							
						</g>
					
				
			</g>
		
		
			<defs>
				<path id="SVGID_25_" d="m461.7 26.2v-0.6h37.9c26.7 0 40.3 8.4 40.3 24.8 0 16.5-13.6 24.8-40.3 24.8h-37.9v-49zm-38.4-23v160.1h38.3v-65.7h12.8l73.8 65.7h51.8l-77.9-66.7c11.8-1.2 21-3.4 30.6-7.4 16.7-7 27.1-21.8 27.1-38.7s-10.4-31.7-27.1-38.7c-15.2-6.3-29.6-8.6-55.2-8.6h-74.2z"/>
			</defs>
			<clipPath id="SVGID_26_">
				<use xlink:href="#SVGID_25_"/>
			</clipPath>
			<g class="st11" clip-path="url(#SVGID_26_)">
				
					
						<defs>
							<rect id="SVGID_27_" x="446.9" y="84.5" width="162" height="82.1"/>
						</defs>
						<clipPath id="SVGID_28_">
							<use xlink:href="#SVGID_27_"/>
						</clipPath>
						<g class="st12" clip-path="url(#SVGID_28_)">
							
								<defs>
									<rect id="SVGID_29_" x="446.9" y="84.5" width="162" height="82.1"/>
								</defs>
								<clipPath id="SVGID_30_">
									<use xlink:href="#SVGID_29_"/>
								</clipPath>
								<polygon class="st13" points="544.4 166.6 465.4 100.1 446.9 86.7 454.8 85.8 474.9 84.5 510 89.4 520.5 95.6 608.9 166.7" clip-path="url(#SVGID_30_)"/>
							
						</g>
					
				
			</g>
		
		
			<defs>
				<path id="SVGID_31_" d="m461.7 26.2v-0.6h37.9c26.7 0 40.3 8.4 40.3 24.8 0 16.5-13.6 24.8-40.3 24.8h-37.9v-49zm-38.4-23v160.1h38.3v-65.7h12.8l73.8 65.7h51.8l-77.9-66.7c11.8-1.2 21-3.4 30.6-7.4 16.7-7 27.1-21.8 27.1-38.7s-10.4-31.7-27.1-38.7c-15.2-6.3-29.6-8.6-55.2-8.6h-74.2z"/>
			</defs>
			<clipPath id="SVGID_32_">
				<use xlink:href="#SVGID_31_"/>
			</clipPath>
			<g class="st14" clip-path="url(#SVGID_32_)">
				
					
						<defs>
							<rect id="SVGID_33_" x="488.2" y="90" width="119.5" height="76.9"/>
						</defs>
						<clipPath id="SVGID_34_">
							<use xlink:href="#SVGID_33_"/>
						</clipPath>
						<g class="st15" clip-path="url(#SVGID_34_)">
							
								<defs>
									<rect id="SVGID_35_" x="488.2" y="90" width="119.5" height="76.9"/>
								</defs>
								<clipPath id="SVGID_36_">
									<use xlink:href="#SVGID_35_"/>
								</clipPath>
								<polygon class="st16" points="573.4 153.7 488.2 90 507.8 91.1 526.6 98.1 540 100.9 599.7 154.8 607.7 166.8" clip-path="url(#SVGID_36_)"/>
							
						</g>
					
				
			</g>
		
		
			<defs>
				<path id="SVGID_37_" d="m461.7 26.2v-0.6h37.9c26.7 0 40.3 8.4 40.3 24.8 0 16.5-13.6 24.8-40.3 24.8h-37.9v-49zm-38.4-23v160.1h38.3v-65.7h12.8l73.8 65.7h51.8l-77.9-66.7c11.8-1.2 21-3.4 30.6-7.4 16.7-7 27.1-21.8 27.1-38.7s-10.4-31.7-27.1-38.7c-15.2-6.3-29.6-8.6-55.2-8.6h-74.2z"/>
			</defs>
			<clipPath id="SVGID_38_">
				<use xlink:href="#SVGID_37_"/>
			</clipPath>
			<line class="st17" x1="458.8" x2="458.8" y1="160.5" y2="160.4" clip-path="url(#SVGID_38_)"/>
		
		
			<defs>
				<path id="SVGID_39_" d="m461.7 26.2v-0.6h37.9c26.7 0 40.3 8.4 40.3 24.8 0 16.5-13.6 24.8-40.3 24.8h-37.9v-49zm-38.4-23v160.1h38.3v-65.7h12.8l73.8 65.7h51.8l-77.9-66.7c11.8-1.2 21-3.4 30.6-7.4 16.7-7 27.1-21.8 27.1-38.7s-10.4-31.7-27.1-38.7c-15.2-6.3-29.6-8.6-55.2-8.6h-74.2z"/>
			</defs>
			<clipPath id="SVGID_40_">
				<use xlink:href="#SVGID_39_"/>
			</clipPath>
			<g class="st18" clip-path="url(#SVGID_40_)">
				
					
						<defs>
							<rect id="SVGID_41_" x="430.4" y="10.3" width="150.5" height="145.9"/>
						</defs>
						<clipPath id="SVGID_42_">
							<use xlink:href="#SVGID_41_"/>
						</clipPath>
						<g class="st19" clip-path="url(#SVGID_42_)">
							
								<defs>
									<rect id="SVGID_43_" x="430.4" y="10.3" width="150.5" height="145.9"/>
								</defs>
								<clipPath id="SVGID_44_">
									<use xlink:href="#SVGID_43_"/>
								</clipPath>
								<g class="st20" clip-path="url(#SVGID_44_)">
									
										
											<defs>
												<rect id="SVGID_45_" x="430.4" y="10.3" width="150.5" height="145.9"/>
											</defs>
											<clipPath id="SVGID_46_">
												<use xlink:href="#SVGID_45_"/>
											</clipPath>
											<g class="st21" clip-path="url(#SVGID_46_)">
												
													<defs>
														<rect id="SVGID_47_" x="430.4" y="10.3" width="150.5" height="145.9"/>
													</defs>
													<clipPath id="SVGID_48_">
														<use xlink:href="#SVGID_47_"/>
													</clipPath>
													<path class="st22" d="m550.9 156.2-73.8-65.7h-17.4c-2.9 0-5.2 2.4-5.2 5.2v60.5h-24.2v-145.9h67.1c24.8 0 38 2 52.5 8 14 5.9 22.7 18.2 22.7 32.1 0 14-8.7 26.3-22.7 32.1-10.5 4.4-20.3 6.5-34.7 7.4-2.3 0.2-4.1 2.1-4.1 4.4 0 1.3 0.6 2.5 1.5 3.3l68.3 58.5h-30v0.1zm-96.3-79.1c0 2.9 2.4 5.3 5.3 5.3h39.7c41.2 0 47.4-20 47.4-31.9s-6.2-31.9-47.4-31.9h-39.8c-2.8 0.1-5.1 2.3-5.1 5.2v52.7l-0.1 0.6z" clip-path="url(#SVGID_48_)"/>
												
											</g>
										
									
								</g>
							
						</g>
					
				
			</g>
		
	
	
		
			<defs>
				<path id="SVGID_49_" d="m44.9 83.7c0-36.1 23.4-58.5 61.2-58.5 37.7 0 61.2 22.4 61.2 58.5s-23.4 58.5-61.2 58.5-61.2-22.4-61.2-58.5m-44.9 0c0 49.6 42.6 83 106 83s106-33.3 106-83c0-49.6-42.6-83-106-83s-106 33.4-106 83"/>
			</defs>
			<clipPath id="SVGID_50_">
				<use xlink:href="#SVGID_49_"/>
			</clipPath>
			
				<linearGradient id="SVGID_51_" x1="191" x2="196.88" y1="-370.02" y2="-370.02" gradientTransform="matrix(13.368 -27.408 27.408 13.368 7655 10346)" gradientUnits="userSpaceOnUse">
				<stop stop-color="#000023" offset="0"/>
				<stop stop-color="#040426" offset=".1459"/>
				<stop stop-color="#0F0F30" offset=".2802"/>
				<stop stop-color="#222241" offset=".4101"/>
				<stop stop-color="#3C3C59" offset=".5371"/>
				<stop stop-color="#5E5E77" offset=".6623"/>
				<stop stop-color="#87879C" offset=".7859"/>
				<stop stop-color="#B8B8C7" offset=".9059"/>
				<stop stop-color="#E3E3EE" offset="1"/>
			</linearGradient>
			<polygon class="st23" points="-65.4 134.8 40.8 -82.8 277.4 32.6 171.3 250.2" clip-path="url(#SVGID_50_)"/>
		
	
	
		
			<defs>
				<path id="SVGID_52_" d="m44.9 83.7c0-36.1 23.4-58.5 61.2-58.5 37.7 0 61.2 22.4 61.2 58.5s-23.4 58.5-61.2 58.5-61.2-22.4-61.2-58.5m-23.5-0.1c0 39.3 38.1 71.2 85.1 71.2s85.1-31.9 85.1-71.2-38.1-71.2-85.1-71.2c-47 0.1-85.1 31.9-85.1 71.2"/>
			</defs>
			<clipPath id="SVGID_53_">
				<use xlink:href="#SVGID_52_"/>
			</clipPath>
			
				<linearGradient id="SVGID_54_" x1="177.91" x2="183.79" y1="-366.15" y2="-366.15" gradientTransform="matrix(30.125 -17.392 17.392 30.125 1026.4 14259)" gradientUnits="userSpaceOnUse">
				<stop stop-color="#E3E3EE" offset="0"/>
				<stop stop-color="#B9B9C8" offset=".137"/>
				<stop stop-color="#78788E" offset=".3684"/>
				<stop stop-color="#444460" offset=".5788"/>
				<stop stop-color="#1F1F3F" offset=".7608"/>
				<stop stop-color="#08082A" offset=".9074"/>
				<stop stop-color="#000023" offset="1"/>
			</linearGradient>
			<polygon class="st24" points="-40.2 48 149.1 -61.3 253.3 119.2 64 228.5" clip-path="url(#SVGID_53_)"/>
		
	
	
		
			<defs>
				<path id="SVGID_55_" d="m42 83.7c0-38.5 25.8-61.3 64-61.3s64 22.8 64 61.3-25.8 61.3-64 61.3-64-22.8-64-61.3m-20.6-0.1c0 39.3 38.1 71.2 85.1 71.2s85.1-31.9 85.1-71.2-38.1-71.2-85.1-71.2c-47 0.1-85.1 31.9-85.1 71.2"/>
			</defs>
			<clipPath id="SVGID_56_">
				<use xlink:href="#SVGID_55_"/>
			</clipPath>
			
				<linearGradient id="SVGID_57_" x1="177.68" x2="183.56" y1="-325.86" y2="-325.86" gradientTransform="matrix(29.283 -16.907 -16.907 -29.283 -10692 -6404.7)" gradientUnits="userSpaceOnUse">
				<stop stop-color="#E3E3EE" offset="0"/>
				<stop stop-color="#B0B0C0" offset=".1658"/>
				<stop stop-color="#727289" offset=".3859"/>
				<stop stop-color="#41415D" offset=".5874"/>
				<stop stop-color="#1D1D3D" offset=".7632"/>
				<stop stop-color="#08082A" offset=".9067"/>
				<stop stop-color="#000023" offset="1"/>
			</linearGradient>
			<polygon class="st25" points="64 228.5 253.3 119.2 149.1 -61.3 -40.2 48" clip-path="url(#SVGID_56_)"/>
		
	
	
		
			<defs>
				<path id="SVGID_58_" d="m226.6 83.3c0 49.9 43.3 83.4 107.7 83.4 28 0 51.2-5.2 71.1-16l3.4-1.8-21.1-21.6-1.9 1.1c-15.3 8.9-29.9 12.9-47.4 12.9-1.1 0-2.3 0-3.5-0.1-37.8-1.2-63.2-24.4-63.2-57.9s25.4-56.8 63.2-57.9h3.5c17.5 0 32.1 4 47.5 13l1.9 1.1 18.4-18.9 2.7-2.7-3.3-1.8c-19.9-10.8-43.2-16.1-71.3-16.1-64.4-0.1-107.7 33.4-107.7 83.3"/>
			</defs>
			<clipPath id="SVGID_59_">
				<use xlink:href="#SVGID_58_"/>
			</clipPath>
			
				<linearGradient id="SVGID_60_" x1="187.55" x2="193.43" y1="-364.62" y2="-364.62" gradientTransform="matrix(23.279 -24.106 24.106 23.279 4681.2 13155)" gradientUnits="userSpaceOnUse">
				<stop stop-color="#000023" offset="0"/>
				<stop stop-color="#09092B" offset=".1018"/>
				<stop stop-color="#212141" offset=".267"/>
				<stop stop-color="#484866" offset=".4752"/>
				<stop stop-color="#7E7F98" offset=".7179"/>
				<stop stop-color="#C3C4D8" offset=".9872"/>
				<stop stop-color="#C6C7DB" offset="1"/>
			</linearGradient>
			<polygon class="st26" points="143.3 86.2 314.6 -91.2 492.3 80.4 321 257.8" clip-path="url(#SVGID_59_)"/>
		
	
	
		
			<defs>
				<path id="SVGID_61_" d="m244.8 84.3c0 39.6 41.6 71.7 92.9 71.7 23.4 0 44.7-6.7 61-17.6l-10.9-11.2-1.9 1.1c-15.3 8.9-29.9 12.9-47.4 12.9-1.1 0-2.3 0-3.5-0.1-37.8-1.2-63.2-24.4-63.2-57.9s25.4-56.8 63.2-57.9h3.5c17.5 0 32.1 4 47.5 13l1.9 1.1 9.6-9.8c-16.1-10.5-37-16.9-59.8-16.9-51.4 0-92.9 32.1-92.9 71.6"/>
			</defs>
			<clipPath id="SVGID_62_">
				<use xlink:href="#SVGID_61_"/>
			</clipPath>
			
				<linearGradient id="SVGID_63_" x1="182.5" x2="188.38" y1="-363.9" y2="-363.9" gradientTransform="matrix(29.609 -17.095 17.095 29.609 1058.9 14025)" gradientUnits="userSpaceOnUse">
				<stop stop-color="#C6C7DB" offset="0"/>
				<stop stop-color="#9192AA" offset=".1822"/>
				<stop stop-color="#5E5E7A" offset=".384"/>
				<stop stop-color="#353554" offset=".5735"/>
				<stop stop-color="#181839" offset=".7451"/>
				<stop stop-color="#060629" offset=".893"/>
				<stop stop-color="#000023" offset="1"/>
			</linearGradient>
			<polygon class="st27" points="182.7 48.5 360.2 -54 460.7 120.2 283.2 222.7" clip-path="url(#SVGID_62_)"/>
		
	
	
		
			<defs>
				<path id="SVGID_64_" d="m244.8 84.3c0 39.6 41.6 71.7 92.9 71.7 22.2 0 42.6-6 58.6-16l-8.9-9.2c-15.6 9.1-31.5 13.9-52.4 13.3-37.2-1.1-65.9-23.7-65.9-60.8s28.7-59.7 65.9-60.8c20.9-0.6 36.9 4.2 52.5 13.3l7.6-7.8c-15.7-9.6-35.6-15.3-57.4-15.3-51.4 0-92.9 32.1-92.9 71.6"/>
			</defs>
			<clipPath id="SVGID_65_">
				<use xlink:href="#SVGID_64_"/>
			</clipPath>
			
				<linearGradient id="SVGID_66_" x1="182.36" x2="188.24" y1="-364.57" y2="-364.57" gradientTransform="matrix(28.539 -16.477 16.477 28.539 1046.7 13538)" gradientUnits="userSpaceOnUse">
				<stop stop-color="#C6C7DB" offset="0"/>
				<stop stop-color="#9192AA" offset=".1822"/>
				<stop stop-color="#5E5E7A" offset=".384"/>
				<stop stop-color="#353554" offset=".5735"/>
				<stop stop-color="#181839" offset=".7451"/>
				<stop stop-color="#060629" offset=".893"/>
				<stop stop-color="#000023" offset="1"/>
			</linearGradient>
			<polygon class="st28" points="182.7 48.5 358.3 -52.9 458.3 120.2 282.6 221.6" clip-path="url(#SVGID_65_)"/>
		
	
	
		
			
				
					<defs>
						<rect id="SVGID_67_" x="234.3" y="7.6" width="163.6" height="151.4"/>
					</defs>
					<clipPath id="SVGID_68_">
						<use xlink:href="#SVGID_67_"/>
					</clipPath>
					<g class="st29" clip-path="url(#SVGID_68_)">
						
							<defs>
								<rect id="SVGID_69_" x="234.3" y="7.6" width="163.6" height="151.4"/>
							</defs>
							<clipPath id="SVGID_70_">
								<use xlink:href="#SVGID_69_"/>
							</clipPath>
							<g class="st30" clip-path="url(#SVGID_70_)">
								
									
										<defs>
											<rect id="SVGID_71_" x="234.3" y="7.6" width="163.6" height="151.4"/>
										</defs>
										<clipPath id="SVGID_72_">
											<use xlink:href="#SVGID_71_"/>
										</clipPath>
										<g class="st31" clip-path="url(#SVGID_72_)">
											
												<defs>
													<rect id="SVGID_73_" x="234.3" y="7.6" width="163.6" height="151.4"/>
												</defs>
												<clipPath id="SVGID_74_">
													<use xlink:href="#SVGID_73_"/>
												</clipPath>
												<path class="st32" d="m334.3 159c-29.3 0-54.4-7.2-72.5-20.8-18-13.6-27.6-32.5-27.6-54.9s9.5-41.3 27.6-54.9 43.1-20.8 72.5-20.8c24.1 0 44.5 3.8 63.6 13l-9.8 10.1c-17-9.4-32-13.1-49.6-13.1-1.2 0-2.5 0-3.8 0.1-42.3 1.3-70.7 27.7-70.7 65.6 0 38 28.4 64.4 70.7 65.6 1.3 0 2.5 0.1 3.7 0.1 17.6 0 32.6-3.8 48-12.1l9.7 9.9c-17.5 8.2-37.7 12.2-61.8 12.2" clip-path="url(#SVGID_74_)"/>
											
										</g>
									
								
							</g>
						
					</g>
				
			
		
		
			
				
					<defs>
						<rect id="SVGID_75_" x="7.7" y="8.4" width="196.6" height="150.5"/>
					</defs>
					<clipPath id="SVGID_76_">
						<use xlink:href="#SVGID_75_"/>
					</clipPath>
					<g class="st33" clip-path="url(#SVGID_76_)">
						
							<defs>
								<rect id="SVGID_77_" x="7.7" y="8.4" width="196.6" height="150.5"/>
							</defs>
							<clipPath id="SVGID_78_">
								<use xlink:href="#SVGID_77_"/>
							</clipPath>
							<g class="st34" clip-path="url(#SVGID_78_)">
								
									
										<defs>
											<rect id="SVGID_79_" x="7.7" y="8.4" width="196.6" height="150.5"/>
										</defs>
										<clipPath id="SVGID_80_">
											<use xlink:href="#SVGID_79_"/>
										</clipPath>
										<g class="st35" clip-path="url(#SVGID_80_)">
											
												<defs>
													<rect id="SVGID_81_" x="7.7" y="8.4" width="196.6" height="150.5"/>
												</defs>
												<clipPath id="SVGID_82_">
													<use xlink:href="#SVGID_81_"/>
												</clipPath>
												<path class="st36" d="m106 159c-28.8 0-53.5-7.1-71.2-20.7-17.7-13.5-27.1-32.4-27.1-54.6 0-22.3 9.4-41.1 27.1-54.6 17.8-13.5 42.4-20.7 71.2-20.7s53.5 7.1 71.2 20.7c17.7 13.5 27.1 32.4 27.1 54.6s-9.4 41.1-27.1 54.6-42.3 20.7-71.2 20.7m0-141.5c-41.8 0-68.9 26-68.9 66.2s27 66.2 68.9 66.2c41.8 0 68.9-26 68.9-66.2s-27-66.2-68.9-66.2" clip-path="url(#SVGID_82_)"/>
											
										</g>
									
								
							</g>
						
					</g>
				
			
		
		
			
				
					<defs>
						<rect id="SVGID_83_" x="234.3" y="7.6" width="163.6" height="151.4"/>
					</defs>
					<clipPath id="SVGID_84_">
						<use xlink:href="#SVGID_83_"/>
					</clipPath>
					<g class="st37" clip-path="url(#SVGID_84_)">
						
							<defs>
								<path id="SVGID_85_" d="m261.9 28.4c-18 13.6-27.6 32.5-27.6 54.9 0 22.3 9.5 41.3 27.6 54.9s43.1 20.8 72.5 20.8c24 0 44.3-4 61.7-12.2l-9.7-9.9c-15.4 8.3-30.3 12.1-48 12.1-1.2 0-2.5 0-3.7-0.1-42.3-1.3-70.7-27.7-70.7-65.6 0-38 28.4-64.4 70.7-65.6 1.3 0 2.5-0.1 3.8-0.1 17.7 0 32.6 3.8 49.6 13.1l9.8-10.1c-19.1-9.2-39.5-13.1-63.6-13.1-29.3 0.1-54.3 7.3-72.4 20.9"/>
							</defs>
							<clipPath id="SVGID_86_">
								<use xlink:href="#SVGID_85_"/>
							</clipPath>
							
								<linearGradient id="SVGID_87_" x1="182.13" x2="188.01" y1="-365.82" y2="-365.82" gradientTransform="matrix(26.86 -15.508 15.508 26.86 1027.5 12774)" gradientUnits="userSpaceOnUse">
								<stop stop-color="#002565" offset="0"/>
								<stop stop-color="#002565" offset=".2883"/>
								<stop stop-color="#11306D" offset=".3254"/>
								<stop stop-color="#293E77" offset=".3882"/>
								<stop stop-color="#37477E" offset=".4469"/>
								<stop stop-color="#3C4A80" offset=".4969"/>
								<stop stop-color="#39487F" offset=".5623"/>
								<stop stop-color="#2F427A" offset=".6148"/>
								<stop stop-color="#1E3772" offset=".6628"/>
								<stop stop-color="#062968" offset=".7079"/>
								<stop stop-color="#002565" offset=".7178"/>
								<stop stop-color="#002565" offset="1"/>
							</linearGradient>
							<polygon class="st38" points="168.8 45.5 357 -63.2 463.5 121.1 275.2 229.8" clip-path="url(#SVGID_86_)"/>
						
					</g>
				
			
		
		
			
				
					<defs>
						<rect id="SVGID_88_" x="7.7" y="8.4" width="196.6" height="150.5"/>
					</defs>
					<clipPath id="SVGID_89_">
						<use xlink:href="#SVGID_88_"/>
					</clipPath>
					<g class="st39" clip-path="url(#SVGID_89_)">
						
							<defs>
								<path id="SVGID_90_" d="m37.2 83.7c0-40.2 27-66.2 68.9-66.2 41.8 0 68.9 26 68.9 66.2s-27 66.2-68.9 66.2-68.9-26-68.9-66.2m-2.4-54.6c-17.7 13.5-27.1 32.4-27.1 54.6s9.4 41.1 27.1 54.6c17.8 13.5 42.4 20.7 71.2 20.7s53.5-7.2 71.2-20.7 27.1-32.4 27.1-54.6-9.4-41.1-27.1-54.6c-17.8-13.5-42.4-20.6-71.2-20.6-28.8-0.1-53.4 7.1-71.2 20.6"/>
							</defs>
							<clipPath id="SVGID_91_">
								<use xlink:href="#SVGID_90_"/>
							</clipPath>
							
								<linearGradient id="SVGID_92_" x1="177.27" x2="183.16" y1="-367.77" y2="-367.77" gradientTransform="matrix(27.855 -16.082 16.082 27.855 1000.7 13226)" gradientUnits="userSpaceOnUse">
								<stop stop-color="#002565" offset="0"/>
								<stop stop-color="#002565" offset=".2883"/>
								<stop stop-color="#11306D" offset=".3254"/>
								<stop stop-color="#293E77" offset=".3882"/>
								<stop stop-color="#37477E" offset=".4469"/>
								<stop stop-color="#3C4A80" offset=".4969"/>
								<stop stop-color="#39487F" offset=".5623"/>
								<stop stop-color="#2F427A" offset=".6148"/>
								<stop stop-color="#1E3772" offset=".6628"/>
								<stop stop-color="#062968" offset=".7079"/>
								<stop stop-color="#002565" offset=".7178"/>
								<stop stop-color="#002565" offset="1"/>
							</linearGradient>
							<polygon class="st40" points="-57.5 46.1 155.2 -76.7 269.5 121.4 56.9 244.1" clip-path="url(#SVGID_91_)"/>
						
					</g>
				
			
		
		
			
				
					<defs>
						<rect id="SVGID_93_" x="431" y="11" width="148.1" height="144.7"/>
					</defs>
					<clipPath id="SVGID_94_">
						<use xlink:href="#SVGID_93_"/>
					</clipPath>
					<g class="st41" clip-path="url(#SVGID_94_)">
						
							<defs>
								<path id="SVGID_95_" d="m453.9 23.7c0.1-3.2 2.6-5.7 5.8-5.8h39.8c41.8 0 48 20.4 48 32.5 0 12.2-6.2 32.5-48 32.5h-39.7c-3.3 0-5.9-2.6-5.9-5.9v-53.3zm-22.9-12.7v144.7h22.9v-59.9c0-3.2 2.6-5.8 5.8-5.9h17.6l73.8 65.7h28l-67-57.4c-1.1-0.9-1.8-2.3-1.8-3.8 0-2.7 2.1-4.8 4.7-5 14.4-0.9 24.1-3 34.5-7.3 13.8-5.8 22.4-17.8 22.4-31.6 0-13.7-8.6-25.8-22.4-31.5-14.3-6-27.5-8-52.2-8h-66.3z"/>
							</defs>
							<clipPath id="SVGID_96_">
								<use xlink:href="#SVGID_95_"/>
							</clipPath>
							
								<linearGradient id="SVGID_97_" x1="185.93" x2="191.81" y1="-363.56" y2="-363.56" gradientTransform="matrix(26.354 -15.216 15.216 26.354 1049.9 12544)" gradientUnits="userSpaceOnUse">
								<stop stop-color="#002565" offset="0"/>
								<stop stop-color="#002565" offset=".2883"/>
								<stop stop-color="#11306D" offset=".3254"/>
								<stop stop-color="#293E77" offset=".3882"/>
								<stop stop-color="#37477E" offset=".4469"/>
								<stop stop-color="#3C4A80" offset=".4969"/>
								<stop stop-color="#39487F" offset=".5623"/>
								<stop stop-color="#2F427A" offset=".6148"/>
								<stop stop-color="#1E3772" offset=".6628"/>
								<stop stop-color="#062968" offset=".7079"/>
								<stop stop-color="#002565" offset=".7178"/>
								<stop stop-color="#002565" offset="1"/>
							</linearGradient>
							<polygon class="st42" points="368.4 47.1 542.1 -53.2 641.8 119.4 468 219.8" clip-path="url(#SVGID_96_)"/>
						
					</g>
				
			
		
	
	
		
			<defs>
				<polygon id="SVGID_98_" points="378.6 129.5 397.3 158.3 410.9 150.9 385.9 125.3"/>
			</defs>
			<clipPath id="SVGID_99_">
				<use xlink:href="#SVGID_98_"/>
			</clipPath>
			<g class="st43" clip-path="url(#SVGID_99_)">
				
					
						<defs>
							<rect id="SVGID_100_" x="386.3" y="123.5" width="29.7" height="26.7"/>
						</defs>
						<clipPath id="SVGID_101_">
							<use xlink:href="#SVGID_100_"/>
						</clipPath>
						<g class="st44" clip-path="url(#SVGID_101_)">
							
								<defs>
									<rect id="SVGID_102_" x="386.3" y="123.5" width="29.7" height="26.7"/>
								</defs>
								<clipPath id="SVGID_103_">
									<use xlink:href="#SVGID_102_"/>
								</clipPath>
								<path class="st45" d="m388.1 123.5-1.8 13.7 8.3 9.7 21.4 3.4s-27.2-26.1-27.9-26.8" clip-path="url(#SVGID_103_)"/>
							
						</g>
					
				
			</g>
		
	
	
		
			<defs>
				<polygon id="SVGID_104_" points="378.9 35.4 385.8 41.5 411.7 15 396.2 9.9"/>
			</defs>
			<clipPath id="SVGID_105_">
				<use xlink:href="#SVGID_104_"/>
			</clipPath>
			<g class="st46" clip-path="url(#SVGID_105_)">
				
					
						<defs>
							<rect id="SVGID_106_" x="386.1" y="16.7" width="34" height="27.9"/>
						</defs>
						<clipPath id="SVGID_107_">
							<use xlink:href="#SVGID_106_"/>
						</clipPath>
						<polygon class="st47" points="394.6 19.2 386.1 29.3 388.8 44.6 420.1 16.7" clip-path="url(#SVGID_107_)"/>
					
				
			</g>
		
	
	
		<path class="st48" d="m48.2 217.9c0 11.6-7.1 17.9-15.8 17.9-9 0-15.3-7-15.3-17.3 0-10.8 6.6-17.8 15.7-17.8 9.4 0 15.4 7.1 15.4 17.2m-26.4 0.5c0 7.3 3.9 13.8 10.9 13.8s10.9-6.4 10.9-14.1c0-6.8-3.5-13.8-10.8-13.8s-11 6.7-11 14.1"/>
		<path class="st48" d="m55.6 210.9 3.5 5.2c1 1.4 1.7 2.6 2.5 3.9h0.1c0.8-1.4 1.6-2.7 2.5-4l3.4-5.2h4.8l-8.4 11.8 8.5 12.6h-5l-3.6-5.5c-1-1.4-1.8-2.8-2.6-4.2h-0.1c-0.8 1.5-1.6 2.8-2.6 4.2l-3.5 5.5h-4.9l8.7-12.4-8.3-11.9h5z"/>
		<path class="st48" d="m77.3 235.2v-21h-3.4v-3.4h3.4v-1.2c0-3.4 0.8-6.5 2.8-8.5 1.7-1.6 3.9-2.3 5.9-2.3 1.6 0 2.9 0.4 3.8 0.7l-0.6 3.4c-0.7-0.3-1.5-0.6-2.8-0.6-3.8 0-4.7 3.3-4.7 7.1v1.3h5.9v3.4h-5.9v21h-4.4v0.1z"/>
		<path class="st48" d="m112.9 222.8c0 9-6.3 12.9-12.1 12.9-6.5 0-11.7-4.8-11.7-12.5 0-8.1 5.4-12.9 12.1-12.9 7 0 11.7 5.1 11.7 12.5m-19.3 0.3c0 5.3 3 9.4 7.3 9.4 4.2 0 7.4-4 7.4-9.5 0-4.1-2.1-9.3-7.3-9.3-5.1 0-7.4 4.8-7.4 9.4"/>
		<path class="st48" d="m118.5 218.5c0-2.9-0.1-5.3-0.2-7.6h3.9l0.2 4.8h0.2c1.1-3.3 3.8-5.3 6.8-5.3 0.5 0 0.8 0 1.2 0.1v4.2c-0.5-0.1-0.9-0.1-1.5-0.1-3.1 0-5.3 2.3-5.9 5.6-0.1 0.6-0.2 1.4-0.2 2.1v13h-4.4v-16.8h-0.1z"/>
		<path class="st48" d="m155.4 199.5v29.4c0 2.2 0.1 4.6 0.2 6.3h-3.9l-0.2-4.2h-0.2c-1.3 2.7-4.2 4.8-8.2 4.8-5.9 0-10.5-5-10.5-12.4-0.1-8.1 5-13 10.9-13 3.8 0 6.2 1.8 7.4 3.7h0.1v-14.6h4.4zm-4.4 21.3c0-0.6-0.1-1.3-0.2-1.9-0.7-2.8-3.1-5.1-6.4-5.1-4.6 0-7.3 4-7.3 9.4 0 4.9 2.5 9 7.2 9 3 0 5.7-2 6.5-5.3 0.1-0.6 0.2-1.2 0.2-1.9v-4.2z"/>
		<path class="st48" d="m197.3 234.2c-1.6 0.8-4.8 1.6-9 1.6-9.6 0-16.7-6-16.7-17.2 0-10.7 7.2-17.8 17.7-17.8 4.2 0 6.9 0.9 8.1 1.5l-1.1 3.6c-1.6-0.8-4-1.4-6.8-1.4-8 0-13.2 5.1-13.2 14 0 8.4 4.8 13.6 13 13.6 2.7 0 5.4-0.6 7.2-1.4l0.8 3.5z"/>
		<path class="st48" d="m219.4 229.4c0 2.1 0.1 4.2 0.4 5.8h-4l-0.4-3.1h-0.1c-1.4 1.9-4 3.6-7.5 3.6-4.9 0-7.5-3.5-7.5-7 0-5.9 5.2-9.1 14.7-9.1v-0.5c0-2-0.6-5.6-5.5-5.6-2.3 0-4.7 0.7-6.4 1.8l-1-3c2-1.3 5-2.1 8.1-2.1 7.4 0 9.3 5.1 9.3 9.9v9.3h-0.1zm-4.2-6.6c-4.8-0.1-10.3 0.8-10.3 5.5 0 2.9 1.9 4.2 4.1 4.2 3.2 0 5.3-2 6-4.1 0.1-0.5 0.2-1 0.2-1.4v-4.2z"/>
		<path class="st48" d="m226.6 217.4c0-2.6-0.1-4.6-0.2-6.6h3.9l0.2 4h0.2c1.4-2.3 3.6-4.5 7.7-4.5 3.3 0 5.8 2 6.8 4.9h0.1c0.8-1.4 1.8-2.4 2.8-3.2 1.5-1.1 3-1.7 5.3-1.7 3.3 0 8.1 2.1 8.1 10.6v14.3h-4.4v-13.7c0-4.7-1.8-7.5-5.3-7.5-2.6 0-4.5 1.9-5.3 4-0.2 0.7-0.3 1.4-0.3 2.2v15.1h-4.3v-14.7c0-3.9-1.7-6.6-5.1-6.6-2.7 0-4.8 2.2-5.5 4.4-0.3 0.6-0.4 1.4-0.4 2.2v14.7h-4.3v-17.9z"/>
		<path class="st48" d="m268.6 199.5h4.4v15.3h0.1c1.6-2.7 4.4-4.4 8.3-4.4 6.1 0 10.3 5 10.3 12.4 0 8.7-5.5 13-11 13-3.5 0-6.3-1.4-8.2-4.5h-0.1l-0.3 4h-3.8c0.1-1.7 0.2-4.1 0.2-6.3v-29.5h0.1zm4.3 25.9c0 0.6 0.1 1.1 0.2 1.6 0.8 3.1 3.4 5.2 6.6 5.2 4.7 0 7.4-3.8 7.4-9.4 0-4.9-2.5-9.1-7.3-9.1-3 0-5.8 2.1-6.7 5.4-0.2 0.6-0.3 1.2-0.3 1.9l0.1 4.4z"/>
		<path class="st48" d="m297.2 218.5c0-2.9-0.1-5.3-0.2-7.6h3.9l0.2 4.8h0.2c1.1-3.3 3.8-5.3 6.8-5.3 0.5 0 0.8 0 1.2 0.1v4.2c-0.5-0.1-0.9-0.1-1.5-0.1-3.1 0-5.3 2.3-5.9 5.6-0.1 0.6-0.2 1.4-0.2 2.1v13h-4.4v-16.8h-0.1z"/>
		<path class="st48" d="m318.8 204c0 1.5-1.1 2.7-2.8 2.7-1.6 0-2.7-1.2-2.7-2.7s1.1-2.8 2.8-2.8c1.6 0 2.7 1.2 2.7 2.8m-4.9 6.8h4.4v24.4h-4.4v-24.4z"/>
		<path class="st48" d="m346.6 199.5v29.4c0 2.2 0.1 4.6 0.2 6.3h-3.9l-0.2-4.2h-0.2c-1.3 2.7-4.2 4.8-8.2 4.8-5.9 0-10.5-5-10.5-12.4-0.1-8.1 5-13 10.9-13 3.8 0 6.2 1.8 7.3 3.7h0.1v-14.6h4.5zm-4.4 21.3c0-0.6-0.1-1.3-0.2-1.9-0.7-2.8-3.1-5.1-6.4-5.1-4.6 0-7.3 4-7.3 9.4 0 4.9 2.5 9 7.2 9 3 0 5.7-2 6.5-5.3 0.1-0.6 0.2-1.2 0.2-1.9v-4.2z"/>
		<path class="st48" d="m374.9 231.6c0 5.6-1.2 9-3.5 11.2-2.4 2.2-5.8 2.9-8.9 2.9-2.9 0-6.1-0.7-8.1-2l1.1-3.4c1.6 1.1 4.1 2 7.1 2 4.5 0 7.9-2.4 7.9-8.6v-2.7h-0.1c-1.3 2.3-4 4.1-7.8 4.1-6 0-10.4-5.1-10.4-11.9 0-8.3 5.4-12.9 11-12.9 4.2 0 6.5 2.2 7.6 4.2h0.1l0.2-3.7h3.9c-0.2 1.7-0.2 3.7-0.2 6.6l0.1 14.2zm-4.5-11.1c0-0.8-0.1-1.4-0.3-2-0.8-2.6-2.9-4.7-6.2-4.7-4.2 0-7.2 3.6-7.2 9.2 0 4.8 2.5 8.8 7.2 8.8 2.8 0 5.2-1.7 6.1-4.5 0.3-0.8 0.4-1.6 0.4-2.4v-4.4z"/>
		<path class="st48" d="m384.6 223.8c0.1 6 3.9 8.5 8.4 8.5 3.2 0 5.1-0.6 6.7-1.3l0.8 3.2c-1.6 0.7-4.3 1.6-8.2 1.6-7.5 0-12-5-12-12.3s4.3-13.1 11.4-13.1c8 0 10.1 7 10.1 11.4 0 0.9 0 1.6-0.1 2.1h-17.1v-0.1zm13-3.1c0.1-2.8-1.2-7.2-6.1-7.2-4.5 0-6.4 4.1-6.8 7.2h12.9z"/>
		<path class="st48" d="m435.1 229.4c0 2.1 0.1 4.2 0.4 5.8h-4l-0.4-3.1h-0.1c-1.4 1.9-4 3.6-7.5 3.6-4.9 0-7.5-3.5-7.5-7 0-5.9 5.2-9.1 14.7-9.1v-0.5c0-2-0.6-5.6-5.5-5.6-2.3 0-4.7 0.7-6.4 1.8l-1-3c2-1.3 5-2.1 8.1-2.1 7.4 0 9.3 5.1 9.3 9.9v9.3h-0.1zm-4.2-6.6c-4.8-0.1-10.3 0.8-10.3 5.5 0 2.9 1.9 4.2 4.1 4.2 3.2 0 5.3-2 6-4.1 0.1-0.5 0.2-1 0.2-1.4v-4.2z"/>
		<path class="st48" d="m442.3 217.4c0-2.6-0.1-4.6-0.2-6.6h3.9l0.3 4h0.1c1.2-2.3 4-4.5 8.1-4.5 3.4 0 8.6 2 8.6 10.4v14.5h-4.4v-14.1c0-3.9-1.5-7.2-5.6-7.2-2.9 0-5.1 2.1-5.9 4.5-0.2 0.6-0.3 1.3-0.3 2.1v14.7h-4.4v-17.8h-0.2z"/>
		<path class="st48" d="m491.2 199.5v29.4c0 2.2 0.1 4.6 0.2 6.3h-3.9l-0.2-4.2h-0.2c-1.3 2.7-4.2 4.8-8.2 4.8-5.9 0-10.5-5-10.5-12.4-0.1-8.1 5-13 10.9-13 3.8 0 6.2 1.8 7.4 3.7h0.1v-14.6h4.4zm-4.4 21.3c0-0.6-0.1-1.3-0.2-1.9-0.7-2.8-3.1-5.1-6.4-5.1-4.6 0-7.3 4-7.3 9.4 0 4.9 2.5 9 7.2 9 3 0 5.7-2 6.5-5.3 0.1-0.6 0.2-1.2 0.2-1.9v-4.2z"/>
		<path class="st48" d="m509.4 201.7c2.2-0.4 5.4-0.7 8.4-0.7 4.7 0 7.8 0.9 9.8 2.8 1.7 1.5 2.7 3.8 2.7 6.5 0 4.4-2.8 7.4-6.3 8.6v0.2c2.6 0.9 4.1 3.3 4.9 6.8 1.1 4.7 1.9 8 2.6 9.3h-4.5c-0.6-1-1.3-3.9-2.2-8.1-1-4.7-2.9-6.4-6.8-6.6h-4.1v14.7h-4.4v-33.5h-0.1zm4.4 15.5h4.5c4.7 0 7.7-2.6 7.7-6.4 0-4.4-3.2-6.3-7.8-6.3-2.1 0-3.6 0.2-4.3 0.4v12.3h-0.1z"/>
		<path class="st48" d="m536 229.9c2 1.3 4.8 2.2 7.8 2.2 4.5 0 7.1-2.4 7.1-5.8 0-3.1-1.8-5-6.4-6.7-5.5-2-9-4.9-9-9.7 0-5.3 4.4-9.2 11-9.2 3.4 0 6 0.8 7.5 1.7l-1.2 3.6c-1.1-0.7-3.3-1.6-6.4-1.6-4.6 0-6.4 2.8-6.4 5.1 0 3.2 2.1 4.7 6.7 6.5 5.7 2.2 8.6 5 8.6 10 0 5.2-3.8 9.8-11.8 9.8-3.3 0-6.8-1-8.7-2.2l1.2-3.7z"/>
		<path class="st48" d="m566.8 224.5-3.5 10.7h-4.5l11.6-33.9h5.2l11.6 33.9h-4.7l-3.6-10.7h-12.1zm11.2-3.4-3.4-9.8c-0.8-2.2-1.3-4.2-1.8-6.2h-0.1c-0.5 2-1 4.1-1.7 6.1l-3.3 9.8h10.3v0.1z"/>
	

</svg>
